<?xml version="1.0" encoding="UTF-8"?><svg xmlns="http://www.w3.org/2000/svg" viewBox="0 0 427.89 426.92" version="1.2" baseProfile="tiny-ps"><title>gh-stats.app</title><path d="M7417.09-7279.92c-8.47,11.41-16.61,22.56-25,33.53-2.06,2.69-2.31,5-1.45,8.24,3.54,13.26,6.75,26.62,10.13,40.16-11.75,7-23.31,14.22-35.19,20.85-3.75,2.1-4.95,4.9-5.46,8.58-1.72,12.17-3.58,24.31-5,36.51-.43,3.58-2.78,3.76-5.15,4.11-12.3,1.85-24.66,3.42-36.93,5.47a10,10,0,0,0-6.13,3.9c-6.81,10.83-13.29,21.87-19.73,32.93-1.49,2.55-2.87,3.33-6,2.49q-18.7-5.07-37.62-9.39a8.54,8.54,0,0,0-6.17,1.23q-15.64,11.18-30.88,22.89c-2.66,2.06-4.37,1.9-6.9,0-10-7.68-20.31-15.07-30.33-22.78a7.44,7.44,0,0,0-7.25-1.42c-12.17,3.21-24.45,6-36.58,9.4-3.57,1-5,0-6.63-2.9-6.22-10.81-12.54-21.57-19.19-32.1a10.6,10.6,0,0,0-6.49-4.21c-12.27-2.09-24.61-3.8-36.95-5.39-3.49-.45-4.73-2.2-5.15-5.35-1.66-12.34-3.26-24.69-5.28-37a10,10,0,0,0-4.08-6.1c-10.55-6.63-21.3-13-32.1-19.19-3-1.74-4.13-3.29-3.06-7.05,3.35-11.8,6.08-23.77,9.22-35.63a9,9,0,0,0-1.76-8.63c-8.42-10.93-16.55-22.07-24.79-33.13,8.46-11.37,16.59-22.54,25-33.48a8.61,8.61,0,0,0,1.51-8.2c-3.12-12-6.07-24.09-9.31-36.08-.84-3.1-.22-4.71,2.61-6.34q16.64-9.59,32.93-19.74a9.35,9.35,0,0,0,3.78-5.74c2-12.28,3.61-24.62,5.32-37,.44-3.21,1.31-5,5.4-5.48,12.52-1.4,24.94-3.78,37.44-5.4,3.14-.4,4.57-2,6-4.33,7-11.88,14.08-23.71,21.33-35.9,13.45,3.35,27,6.52,40.31,10.18,3.57,1,5.95.2,8.64-1.85,10.86-8.23,21.83-16.33,33-24.65,11,8.22,22,16.27,32.84,24.53,2.88,2.2,5.38,2.92,9.08,1.91,13.08-3.6,26.3-6.71,40-10.13,5.3,8.86,11.57,17.4,15.76,26.86,4.84,10.89,12.5,14.79,23.8,15.26,9.07.37,18.09,2.35,27.07,3.94a5.11,5.11,0,0,1,3.18,3.47c1.92,12.12,3.6,24.29,5.23,36.46.53,4,1.72,6.88,5.69,9,10.51,5.72,20.59,12.21,31,18.11,3.12,1.78,4,3.65,3.06,7.08-3.16,11.84-5.93,23.79-9.2,35.6a9,9,0,0,0,1.7,8.68C7400.59-7302.19,7408.68-7291.2,7417.09-7279.92Zm-33.42,0c-7.12-9.61-14.08-18.74-20.66-28.14a10.07,10.07,0,0,1-1.45-7.13c2.24-10.2,4.81-20.33,7.62-30.38.83-2.93,0-4.05-2.37-5.4-8.93-5.15-17.7-10.58-26.62-15.75a7.78,7.78,0,0,1-4.37-6.54c-1.37-11.34-3.27-22.62-5-34.35-11.44-1.69-22.77-3.18-34-5.17a10.81,10.81,0,0,1-6.56-4.12c-5.66-8.81-10.86-17.91-16.15-26.95-1.23-2.11-2.29-2.91-5.09-2.13-10.21,2.86-20.52,5.38-30.88,7.64a9.52,9.52,0,0,1-6.71-1.33q-12.68-8.86-24.87-18.43c-2.66-2.07-4.35-1.83-6.86.12-7.88,6.13-16,11.93-23.95,18-2.54,1.94-4.81,2.66-8.18,1.7-9.71-2.76-19.64-4.78-29.37-7.51-3.22-.9-4.7-.26-6.29,2.56-5.1,8.95-10.32,17.85-15.88,26.52a10.09,10.09,0,0,1-6.15,3.94c-10.14,1.76-20.36,3-30.55,4.47-2.75.39-4.06,1.43-4.44,4.67-1.23,10.38-3.26,20.66-4.55,31a6.81,6.81,0,0,1-3.84,5.68c-10,5.87-20,11.83-30.13,17.88,2.79,11.07,5.31,21.87,8.32,32.53,1,3.72.66,6.42-1.73,9.47-6.17,7.85-11.9,16.06-18,23.93-1.92,2.46-1.79,4,.06,6.43,6.41,8.29,12.69,16.7,18.73,25.27a8.61,8.61,0,0,1,1.21,6.18c-2.28,10-4.91,20-7.54,29.9-.81,3.05-.56,5,2.67,6.79,9.16,5.08,18.09,10.56,27,16.1a7.45,7.45,0,0,1,3,4.47c1.83,10.63,3.56,21.29,4.89,32,.41,3.26,1.63,4,4.6,4.38q15.8,2.06,31.5,4.79a8.11,8.11,0,0,1,4.86,3.37c5.39,8.59,10.64,17.28,15.61,26.12,1.85,3.29,3.64,4.21,7.41,3.12,9.71-2.78,19.53-5.2,29.4-7.38a9.23,9.23,0,0,1,6.6,1.31c9.49,6.71,18.74,13.77,28.29,20.87,9.51-7.08,18.75-14.15,28.23-20.87a9.32,9.32,0,0,1,6.62-1.31c10,2.22,20,4.75,29.91,7.47,3.33.92,5.05.16,6.74-2.82,5-8.83,10.13-17.57,15.55-26.14a9.41,9.41,0,0,1,5.58-3.82c10.13-1.84,20.3-3.53,30.52-4.6,3.72-.39,4.78-1.87,5.23-5,1.36-9.53,3.22-19,4.08-28.59.41-4.69,2.5-7,6.24-9.1,9.51-5.39,18.82-11.12,28.14-16.67-2.89-11.45-5.5-22.41-8.48-33.27a8.57,8.57,0,0,1,1.61-8.28C7370-7261.37,7376.66-7270.49,7383.67-7279.89Z" transform="translate(-6989.2 7493.86)"></path><path d="M7162.12-7181.25c0,9.53.46,18.36-.15,27.12-.53,7.6-7.47,11.19-14.46,7.89-48.05-22.72-77.1-60-83.54-113.05-9.05-74.44,42.26-142.18,116.16-155,77.55-13.45,151.81,41.44,163,119.49,8.48,58.93-23.62,121.52-81.53,148.46-9.73,4.53-15.9.55-16-10.32-.06-6.5-.28-13,0-19.49.67-15.37-2.75-29.42-13.14-42.08,3-.81,5.45-1.41,7.89-2.16,19.12-5.83,35.06-15.68,42.48-35.39,6.21-16.48,5.05-32.72-3.48-48.2-1.58-2.86-1.53-5.34-1.12-8.42,1-7.38,1.48-14.85,1.88-22.29a17.88,17.88,0,0,0-1.25-6.34c-2.91-8.88-7.2-11.51-16.4-10.14a56.57,56.57,0,0,0-24,9.32,7.61,7.61,0,0,1-5.74,1,94.33,94.33,0,0,0-58.41.05,7.81,7.81,0,0,1-5.8-1c-8.13-5.24-16.82-8.79-26.49-9.53-7.12-.55-10.14,1.42-13,8.05-3.49,8-3.31,16.42-1.41,24.54,1.67,7.16.71,13-2.36,19.79-13,28.78-.3,60.45,29.09,73.71,6.47,2.92,13.4,4.84,20.26,7.28-1.82,4.35-5,6.93-10,7-5.82.07-11.85,1.33-17.39.17-4.31-.91-8.29-4.37-11.9-7.33-4.61-3.77-8.44-8.49-13.11-12.18-2.48-2-6-3.58-9.05-3.54a12.1,12.1,0,0,0-8.3,4c-2.31,2.86-.72,6.56,2.07,8.82,5.57,4.5,8.45,10.55,11,17,1.5,3.86,3,7.87,5.34,11.22,5.57,8,13.8,11.23,23.28,11.54C7151.47-7181.11,7156.44-7181.25,7162.12-7181.25Z" transform="translate(-6989.2 7493.86)"></path></svg>